HIERARCHY
ROOT Hips
{
 OFFSET 0.000000 0.000000 0.000000
 CHANNELS 6 Xposition Yposition Zposition Yrotation Xrotation Zrotation
 JOINT Chest
 {
  OFFSET 0.000000 9.585900 0.002600
  CHANNELS 3 Yrotation Xrotation Zrotation
  JOINT Chest2
  {
   OFFSET 0.000000 9.601200 -0.005300
   CHANNELS 3 Yrotation Xrotation Zrotation
   JOINT Chest3
   {
    OFFSET 0.000000 9.561800 0.000000
    CHANNELS 3 Yrotation Xrotation Zrotation
    JOINT Chest4
    {
     OFFSET 0.000000 9.552100 0.000000
     CHANNELS 3 Yrotation Xrotation Zrotation
     JOINT Neck
     {
      OFFSET 0.000000 14.453000 0.000000
      CHANNELS 3 Yrotation Xrotation Zrotation
      JOINT Head
      {
       OFFSET 0.000000 8.936500 -0.011300
       CHANNELS 3 Yrotation Xrotation Zrotation
       End Site
       {
        OFFSET 0.000000 17.073600 -0.006000
       }
      }
     }
     JOINT RightCollar
     {
      OFFSET -2.921100 9.558500 0.000000
      CHANNELS 3 Yrotation Xrotation Zrotation
      JOINT RightShoulder
      {
       OFFSET -13.519700 0.000000 0.000000
       CHANNELS 3 Yrotation Xrotation Zrotation
       JOINT RightElbow
       {
        OFFSET 0.000000 -29.696600 0.000000
        CHANNELS 3 Yrotation Xrotation Zrotation
        JOINT RightWrist
        {
         OFFSET 0.000000 -24.004700 0.000000
         CHANNELS 3 Yrotation Xrotation Zrotation
         End Site
         {
          OFFSET 0.000000 -17.728500 0.000000
         }
        }
       }
      }
     }
     JOINT LeftCollar
     {
      OFFSET 2.921100 9.558500 0.000000
      CHANNELS 3 Yrotation Xrotation Zrotation
      JOINT LeftShoulder
      {
       OFFSET 13.519700 0.000000 0.000000
       CHANNELS 3 Yrotation Xrotation Zrotation
       JOINT LeftElbow
       {
        OFFSET 0.000000 -29.696600 0.000000
        CHANNELS 3 Yrotation Xrotation Zrotation
        JOINT LeftWrist
        {
         OFFSET 0.000000 -24.004700 0.000000
         CHANNELS 3 Yrotation Xrotation Zrotation
         End Site
         {
          OFFSET 0.000000 -17.728500 0.000000
         }
        }
       }
      }
     }
    }
   }
  }
 }
 JOINT RightHip
 {
  OFFSET -7.771700 -0.012900 -0.001300
  CHANNELS 3 Yrotation Xrotation Zrotation
  JOINT RightKnee
  {
   OFFSET 0.000000 -40.869800 0.001200
   CHANNELS 3 Yrotation Xrotation Zrotation
   JOINT RightAnkle
   {
    OFFSET 0.000000 -39.717900 0.002100
    CHANNELS 3 Yrotation Xrotation Zrotation
    JOINT RightToe
    {
     OFFSET 0.000000 -4.965400 11.033500
     CHANNELS 3 Yrotation Xrotation Zrotation
     End Site
     {
      OFFSET 0.000000 -1.423100 5.872300
     }
    }
   }
  }
 }
 JOINT LeftHip
 {
  OFFSET 7.771700 -0.012900 -0.001300
  CHANNELS 3 Yrotation Xrotation Zrotation
  JOINT LeftKnee
  {
   OFFSET 0.000000 -40.869800 0.001200
   CHANNELS 3 Yrotation Xrotation Zrotation
   JOINT LeftAnkle
   {
    OFFSET 0.000000 -39.717900 0.002100
    CHANNELS 3 Yrotation Xrotation Zrotation
    JOINT LeftToe
    {
     OFFSET 0.000000 -4.965400 11.033500
     CHANNELS 3 Yrotation Xrotation Zrotation
     End Site
     {
      OFFSET 0.000000 -1.423100 5.872300
     }
    }
   }
  }
 }
}
MOTION
Frames: 5
Frame Time: 0.008333
-11.359638 55.733994 22.513007 -173.021441 -30.331028 -9.406152 -1.869931 13.066125 3.676580 -1.035322 7.457428 1.755418 -1.243551 9.296235 2.183981 -1.046897 7.477473 1.751940 0.807244 18.782240 -2.798201 1.503326 -5.868556 -3.157700 2.070280 -2.271812 -4.758503 -14.812628 -3.645123 6.798109 62.889796 -79.187543 -42.853062 12.655151 2.398745 -10.482017 -8.796989 1.629816 -2.656614 5.477807 0.448860 -1.231266 -115.090261 -76.586585 110.963054 10.350603 -8.888974 -11.875740 -21.069462 -35.193997 5.651357 12.523094 86.904141 10.404818 1.190201 -17.454373 -2.469894 -0.012968 0.516052 -0.000872 -13.893193 -46.541416 10.054321 179.653436 82.081011 173.092253 -2.737100 -16.998415 4.330248 -0.017031 -0.523132 0.005475
-11.367770 55.740081 22.506495 -172.991617 -30.268504 -9.418175 -1.898127 13.043641 3.676523 -1.044110 7.457358 1.754276 -1.271697 9.326350 2.175938 -1.017108 7.419865 1.757037 0.717421 18.754753 -2.834561 1.437803 -5.929919 -3.180846 2.047776 -2.212348 -4.768745 -14.844563 -3.573840 6.955288 63.343778 -79.506611 -43.551623 12.641417 2.339742 -9.781955 -8.789367 1.629952 -2.655831 5.506195 0.582335 -1.249347 -119.081949 -77.625731 114.557847 10.511051 -8.503742 -12.685679 -21.114925 -35.243397 5.661817 12.593192 86.911233 10.472495 1.194025 -17.468461 -2.465474 -0.012910 0.518217 -0.000657 -13.929734 -46.601903 10.057560 179.621175 82.073488 173.061802 -2.738520 -17.004863 4.335775 -0.016690 -0.521947 0.004595
-11.375632 55.747258 22.496745 -172.972500 -30.229372 -9.424145 -1.913419 13.044656 3.677231 -1.052761 7.448174 1.752255 -1.280835 9.337288 2.176448 -1.030541 7.418137 1.753224 0.656082 18.699411 -2.867757 1.374029 -5.994449 -3.202935 2.049489 -2.175915 -4.773332 -14.860330 -3.496594 7.123273 63.840450 -79.892726 -44.313281 12.647458 2.262328 -9.048089 -8.765980 1.619031 -2.649726 5.647830 0.672078 -1.234752 -124.027406 -78.619885 118.973926 10.687758 -8.100589 -13.441508 -21.131019 -35.271748 5.661706 12.700963 86.914860 10.582329 1.183106 -17.485087 -2.458828 -0.012058 0.520387 0.001333 -13.949119 -46.638061 10.046395 179.542272 82.062819 172.989808 -2.736537 -17.013483 4.333212 -0.017373 -0.524489 0.004045
-11.382482 55.752826 22.488634 -172.958328 -30.180079 -9.426673 -1.930332 13.016745 3.676285 -1.057025 7.438703 1.750741 -1.288471 9.368893 2.181526 -1.044068 7.416612 1.746480 0.597463 18.643088 -2.895797 1.309657 -6.059871 -3.224008 2.053479 -2.153022 -4.769216 -14.875238 -3.395428 7.289066 64.388046 -80.349625 -45.123849 12.660118 2.145350 -8.307058 -8.745401 1.609611 -2.642013 5.814719 0.739483 -1.209917 -129.766856 -79.455493 124.151093 10.876689 -7.710338 -14.078390 -21.155250 -35.313967 5.672276 12.886650 86.922548 10.763465 1.167882 -17.495548 -2.451469 -0.012257 0.518720 0.000567 -13.971235 -46.686458 10.044215 179.476766 82.053004 172.926877 -2.737279 -17.020763 4.329808 -0.017781 -0.526706 0.004900
-11.387849 55.758455 22.479812 -172.950191 -30.138610 -9.429003 -1.935205 13.026349 3.684952 -1.060159 7.428391 1.750706 -1.300191 9.372054 2.185892 -1.049286 7.415652 1.742671 0.570572 18.593459 -2.915783 1.212141 -6.129380 -3.240804 2.059829 -2.162980 -4.773534 -14.908010 -3.249078 7.451955 64.969950 -80.893962 -45.942333 12.675280 1.981196 -7.588217 -8.731294 1.600269 -2.626600 5.994196 0.800301 -1.189377 -136.140187 -80.064317 129.955187 11.075984 -7.347533 -14.558939 -21.163872 -35.348340 5.679113 12.973546 86.928778 10.853235 1.159741 -17.508061 -2.444123 -0.010617 0.519118 0.000428 -13.992180 -46.725117 10.045202 179.459682 82.041741 172.912618 -2.730752 -17.032747 4.322598 -0.018510 -0.526892 0.005927
